<svg width="19" height="19" viewBox="0 0 19 19" fill="none" xmlns="http://www.w3.org/2000/svg">
<path d="M9.66992 10.375C12.4473 10.375 14.7324 8.125 14.7324 5.3125C14.7324 2.53516 12.4473 0.25 9.66992 0.25C6.85742 0.25 4.60742 2.53516 4.60742 5.3125C4.60742 8.125 6.85742 10.375 9.66992 10.375ZM14.1699 11.5H12.2012C11.4277 11.8867 10.584 12.0625 9.66992 12.0625C8.75586 12.0625 7.87695 11.8867 7.10352 11.5H5.16992C2.67383 11.5 0.669922 13.5391 0.669922 16V16.5625C0.669922 17.5117 1.4082 18.25 2.35742 18.25H16.9824C17.8965 18.25 18.6699 17.5117 18.6699 16.5625V16C18.6699 13.5391 16.6309 11.5 14.1699 11.5Z" fill="black"/>
</svg>
