<svg width="23" height="19" viewBox="0 0 23 19" fill="none" xmlns="http://www.w3.org/2000/svg">
<path d="M22.0059 4.43359L19.7207 0.777344C19.5098 0.460938 19.1582 0.25 18.7715 0.25H4.56836C4.18164 0.25 3.79492 0.460938 3.58398 0.777344L1.33398 4.43359C0.138672 6.33203 1.19336 8.93359 3.37305 9.21484C3.54883 9.25 3.68945 9.25 3.86523 9.25C4.91992 9.25 5.83398 8.79297 6.4668 8.08984C7.09961 8.79297 8.01367 9.25 9.06836 9.25C10.0879 9.25 11.002 8.79297 11.6348 8.08984C12.2676 8.79297 13.2168 9.25 14.2363 9.25C15.291 9.25 16.2051 8.79297 16.8379 8.08984C17.4707 8.79297 18.3848 9.25 19.4395 9.25C19.6152 9.25 19.7559 9.25 19.9316 9.21484C22.1113 8.93359 23.166 6.33203 22.0059 4.43359ZM19.4395 10.375C19.0879 10.375 18.7363 10.3398 18.4199 10.2695V13.75H4.91992V10.2695C4.56836 10.3398 4.2168 10.375 3.86523 10.375C3.6543 10.375 3.44336 10.375 3.23242 10.3398C3.02148 10.3047 2.8457 10.2695 2.66992 10.2344V17.125C2.66992 17.7578 3.16211 18.25 3.79492 18.25H19.5449C20.1426 18.25 20.6699 17.7578 20.6699 17.125V10.2344C20.459 10.2695 20.2832 10.3398 20.0723 10.3398C19.8613 10.375 19.6504 10.375 19.4395 10.375Z" fill="black"/>
</svg>
