<svg width="33" height="17" viewBox="0 0 33 17" fill="none" xmlns="http://www.w3.org/2000/svg">
<path d="M14.4895 7.08984C14.1379 6.73828 13.6105 6.77344 13.259 7.08984L9.25117 11.3438V1.21875C9.25117 0.761719 8.86445 0.375 8.40742 0.375H7.28242C6.79023 0.375 6.43867 0.761719 6.43867 1.21875V11.3438L2.3957 7.08984C2.04414 6.77344 1.5168 6.73828 1.16523 7.08984L0.391796 7.86328C0.0753899 8.17969 0.0753899 8.74219 0.391796 9.05859L7.24726 15.8789C7.56367 16.2305 8.09101 16.2305 8.44258 15.8789L15.2629 9.05859C15.5793 8.74219 15.5793 8.21484 15.2629 7.86328L14.4895 7.08984ZM17.8152 9.44531C18.1668 9.79688 18.6941 9.76172 19.0457 9.44531L23.0887 5.19141V15.2812C23.0887 15.7734 23.4402 16.125 23.9324 16.125H25.0574C25.5145 16.125 25.9012 15.7734 25.9012 15.2812V5.19141L29.909 9.41016C30.2605 9.76172 30.7879 9.76172 31.1395 9.44531L31.9129 8.67188C32.2293 8.32031 32.2293 7.79297 31.9129 7.47656L25.0574 0.621094C24.741 0.304688 24.2137 0.304688 23.8973 0.621094L17.0418 7.47656C16.7254 7.79297 16.7254 8.32031 17.0418 8.67188L17.8152 9.44531Z" fill="black"/>
</svg>
