<svg width="10" height="10" viewBox="0 0 10 10" fill="none" xmlns="http://www.w3.org/2000/svg">
<path d="M6.6377 4.80566L9.37207 2.07129C9.72754 1.74316 9.72754 1.19629 9.37207 0.868164L8.77051 0.266602C8.44238 -0.0888672 7.89551 -0.0888672 7.56738 0.266602L4.83301 3.00098L2.07129 0.266602C1.74316 -0.0888672 1.19629 -0.0888672 0.868164 0.266602L0.266602 0.868164C-0.0888672 1.19629 -0.0888672 1.74316 0.266602 2.07129L3.00098 4.80566L0.266602 7.56738C-0.0888672 7.89551 -0.0888672 8.44238 0.266602 8.77051L0.868164 9.37207C1.19629 9.72754 1.74316 9.72754 2.07129 9.37207L4.83301 6.6377L7.56738 9.37207C7.89551 9.72754 8.44238 9.72754 8.77051 9.37207L9.37207 8.77051C9.72754 8.44238 9.72754 7.89551 9.37207 7.56738L6.6377 4.80566Z" fill="#18110C"/>
</svg>
