<svg width="21" height="17" viewBox="0 0 21 17" fill="none" xmlns="http://www.w3.org/2000/svg">
<path d="M9.88867 4.48828L3.41992 9.83203V15.5625C3.41992 15.8789 3.66602 16.125 3.98242 16.125H7.91992C8.20117 16.125 8.44727 15.8789 8.44727 15.5625V12.1875C8.44727 11.9062 8.72852 11.625 9.00977 11.625H11.2598C11.5762 11.625 11.8223 11.9062 11.8223 12.1875V15.5625C11.8223 15.8789 12.1035 16.125 12.3848 16.125H16.3574C16.6387 16.125 16.9199 15.8789 16.9199 15.5625V9.79688L10.416 4.48828C10.3457 4.41797 10.2402 4.38281 10.1699 4.38281C10.0645 4.38281 9.95898 4.41797 9.88867 4.48828ZM20.1191 8.10938L17.2012 5.68359V0.832031C17.2012 0.585938 16.9902 0.410156 16.7793 0.410156H14.8105C14.5645 0.410156 14.3887 0.585938 14.3887 0.832031V3.36328L11.2246 0.761719C10.9434 0.550781 10.5566 0.410156 10.1699 0.410156C9.74805 0.410156 9.36133 0.550781 9.08008 0.761719L0.185547 8.10938C0.0800781 8.17969 0.00976562 8.32031 0.00976562 8.42578C0.00976562 8.53125 0.0800781 8.63672 0.115234 8.70703L1.0293 9.79688C1.09961 9.90234 1.20508 9.9375 1.3457 9.9375C1.45117 9.9375 1.55664 9.90234 1.62695 9.83203L9.88867 3.04688C9.95898 2.97656 10.0645 2.94141 10.1699 2.94141C10.2402 2.94141 10.3457 2.97656 10.416 3.04688L18.6777 9.83203C18.748 9.90234 18.8535 9.9375 18.959 9.9375C19.0996 9.9375 19.2051 9.90234 19.2754 9.79688L20.1895 8.70703C20.2598 8.63672 20.2949 8.53125 20.2949 8.42578C20.2949 8.32031 20.2246 8.17969 20.1191 8.10938Z" fill="black"/>
</svg>
