<svg width="19" height="16" viewBox="0 0 19 16" fill="none" xmlns="http://www.w3.org/2000/svg">
<path d="M5.52227 0.515625C5.45195 0.445312 5.34648 0.375 5.24102 0.375C5.10039 0.375 4.99492 0.445312 4.92461 0.515625L2.67461 2.73047L1.90117 1.95703C1.83086 1.88672 1.72539 1.85156 1.58477 1.85156C1.4793 1.85156 1.37383 1.88672 1.30352 1.95703L0.741016 2.51953C0.670703 2.58984 0.600391 2.69531 0.600391 2.80078C0.600391 2.94141 0.670703 3.04688 0.741016 3.11719L2.42852 4.76953C2.49883 4.83984 2.6043 4.91016 2.70977 4.91016C2.85039 4.91016 2.95586 4.83984 3.02617 4.76953L3.58867 4.24219L6.11992 1.67578C6.19023 1.60547 6.26055 1.5 6.26055 1.39453C6.26055 1.28906 6.19023 1.18359 6.11992 1.07812L5.52227 0.515625ZM5.52227 6.10547C5.45195 6.03516 5.34648 6 5.24102 6C5.10039 6 4.99492 6.03516 4.92461 6.10547L2.67461 8.35547L1.90117 7.58203C1.83086 7.51172 1.72539 7.44141 1.58477 7.44141C1.4793 7.44141 1.37383 7.51172 1.30352 7.58203L0.741016 8.10938C0.670703 8.21484 0.600391 8.32031 0.600391 8.42578C0.600391 8.53125 0.670703 8.63672 0.741016 8.70703L2.42852 10.3945C2.49883 10.4648 2.6043 10.5352 2.70977 10.5352C2.85039 10.5352 2.95586 10.4648 3.02617 10.3945L3.58867 9.83203L6.11992 7.30078C6.19023 7.23047 6.26055 7.125 6.26055 7.01953C6.26055 6.87891 6.19023 6.77344 6.11992 6.70312L5.52227 6.10547ZM2.88555 12.1875C1.93633 12.1875 1.16289 12.9609 1.16289 13.875C1.16289 14.8242 1.93633 15.5625 2.88555 15.5625C3.79961 15.5625 4.57305 14.8242 4.57305 13.875C4.57305 12.9609 3.79961 12.1875 2.88555 12.1875ZM18.073 12.75H7.94805C7.63164 12.75 7.38555 13.0312 7.38555 13.3125V14.4375C7.38555 14.7539 7.63164 15 7.94805 15H18.073C18.3543 15 18.6355 14.7539 18.6355 14.4375V13.3125C18.6355 13.0312 18.3543 12.75 18.073 12.75ZM18.073 1.5H7.94805C7.63164 1.5 7.38555 1.78125 7.38555 2.0625V3.1875C7.38555 3.50391 7.63164 3.75 7.94805 3.75H18.073C18.3543 3.75 18.6355 3.50391 18.6355 3.1875V2.0625C18.6355 1.78125 18.3543 1.5 18.073 1.5ZM18.073 7.125H7.94805C7.63164 7.125 7.38555 7.40625 7.38555 7.6875V8.8125C7.38555 9.12891 7.63164 9.375 7.94805 9.375H18.073C18.3543 9.375 18.6355 9.12891 18.6355 8.8125V7.6875C18.6355 7.40625 18.3543 7.125 18.073 7.125Z" fill="black"/>
</svg>
