<svg width="15" height="13" viewBox="0 0 15 13" fill="none" xmlns="http://www.w3.org/2000/svg">
<path d="M7.56246 2.375H9.31246C9.53121 2.375 9.74996 2.18359 9.74996 1.9375V1.0625C9.74996 0.84375 9.53121 0.625 9.31246 0.625H7.56246C7.31637 0.625 7.12496 0.84375 7.12496 1.0625V1.9375C7.12496 2.18359 7.31637 2.375 7.56246 2.375ZM7.56246 5.875H11.0625C11.2812 5.875 11.5 5.68359 11.5 5.4375V4.5625C11.5 4.34375 11.2812 4.125 11.0625 4.125H7.56246C7.31637 4.125 7.12496 4.34375 7.12496 4.5625V5.4375C7.12496 5.68359 7.31637 5.875 7.56246 5.875ZM14.5625 11.125H7.56246C7.31637 11.125 7.12496 11.3438 7.12496 11.5625V12.4375C7.12496 12.6836 7.31637 12.875 7.56246 12.875H14.5625C14.7812 12.875 15 12.6836 15 12.4375V11.5625C15 11.3438 14.7812 11.125 14.5625 11.125ZM7.56246 9.375H12.8125C13.0312 9.375 13.25 9.18359 13.25 8.9375V8.0625C13.25 7.84375 13.0312 7.625 12.8125 7.625H7.56246C7.31637 7.625 7.12496 7.84375 7.12496 8.0625V8.9375C7.12496 9.18359 7.31637 9.375 7.56246 9.375ZM5.81246 9.375H4.49996V1.0625C4.49996 0.84375 4.28121 0.625 4.06246 0.625H3.18746C2.94137 0.625 2.74996 0.84375 2.74996 1.0625V9.375H1.43746C1.0273 9.375 0.835896 9.86719 1.10933 10.1406L3.29683 12.7656C3.37887 12.8477 3.48824 12.875 3.62496 12.875C3.73433 12.875 3.84371 12.8477 3.92574 12.7656L6.11324 10.1406C6.38668 9.86719 6.19527 9.375 5.81246 9.375Z" fill="#121425"/>
</svg>
