<svg width="15" height="13" viewBox="0 0 15 13" fill="none" xmlns="http://www.w3.org/2000/svg">
<path d="M6.58089 1.75H8.33089C8.54964 1.75 8.76839 1.55859 8.76839 1.3125V0.4375C8.76839 0.21875 8.54964 0 8.33089 0H6.58089C6.3348 0 6.14339 0.21875 6.14339 0.4375V1.3125C6.14339 1.55859 6.3348 1.75 6.58089 1.75ZM6.58089 5.25H10.0809C10.2996 5.25 10.5184 5.05859 10.5184 4.8125V3.9375C10.5184 3.71875 10.2996 3.5 10.0809 3.5H6.58089C6.3348 3.5 6.14339 3.71875 6.14339 3.9375V4.8125C6.14339 5.05859 6.3348 5.25 6.58089 5.25ZM13.5809 10.5H6.58089C6.3348 10.5 6.14339 10.7188 6.14339 10.9375V11.8125C6.14339 12.0586 6.3348 12.25 6.58089 12.25H13.5809C13.7996 12.25 14.0184 12.0586 14.0184 11.8125V10.9375C14.0184 10.7188 13.7996 10.5 13.5809 10.5ZM6.58089 8.75H11.8309C12.0496 8.75 12.2684 8.55859 12.2684 8.3125V7.4375C12.2684 7.21875 12.0496 7 11.8309 7H6.58089C6.3348 7 6.14339 7.21875 6.14339 7.4375V8.3125C6.14339 8.55859 6.3348 8.75 6.58089 8.75ZM4.83089 8.75H3.51839V0.4375C3.51839 0.21875 3.29964 0 3.08089 0H2.20589C1.9598 0 1.76839 0.21875 1.76839 0.4375V8.75H0.455892C0.0457353 8.75 -0.145671 9.24219 0.127767 9.51562L2.31527 12.1406C2.3973 12.2227 2.50667 12.25 2.64339 12.25C2.75277 12.25 2.86214 12.2227 2.94417 12.1406L5.13167 9.51562C5.40511 9.24219 5.2137 8.75 4.83089 8.75Z" fill="#FAFAFA"/>
</svg>
