<svg width="36" height="16" viewBox="0 0 36 16" fill="none" xmlns="http://www.w3.org/2000/svg">
<path fill-rule="evenodd" clip-rule="evenodd" d="M14 7.6875C15.73 3.18775 20 0 25 0C30 0 34.27 3.18775 36 7.6875C34.27 12.1872 30 15.375 25 15.375C20 15.375 15.73 12.1872 14 7.6875ZM25 2.05C28.79 2.05 32.17 4.23325 33.82 7.6875C32.17 11.1418 28.8 13.325 25 13.325C21.2 13.325 17.83 11.1418 16.18 7.6875C17.83 4.23325 21.21 2.05 25 2.05ZM6 3.075H4V7.175H0V9.225H4V13.325H6V9.225H10V7.175H6V3.075ZM25 5.12501C26.38 5.12501 27.5 6.27301 27.5 7.68751C27.5 9.10201 26.38 10.25 25 10.25C23.62 10.25 22.5 9.10201 22.5 7.68751C22.5 6.27301 23.62 5.12501 25 5.12501ZM20.5 7.6875C20.5 5.1455 22.52 3.075 25 3.075C27.48 3.075 29.5 5.1455 29.5 7.6875C29.5 10.2295 27.48 12.3 25 12.3C22.52 12.3 20.5 10.2295 20.5 7.6875Z" fill="#121425"/>
</svg>
